<?xml version="1.0" encoding="UTF-8" standalone="no"?>
<svg xmlns="http://www.w3.org/2000/svg" xmlns:xlink="http://www.w3.org/1999/xlink" display="inline" height="138.000000px" preserveAspectRatio="xMinYMin meet" viewBox="19.00 19.00 442.00 138.00" width="442.000000px" x="0" y="0" zoomAndPan="disable">
  <g fill="none" stroke="black" stroke-width="1" fill-rule="evenodd" stroke-linecap="square" stroke-linejoin="bevel">
    <!--RAWSTRING-->
    <g id="background" pointer-events="none">
      <g clip-path="none" fill="#ffffff" fill-opacity="1" opacity="1" stroke="none" stroke-opacity="0" transform="matrix(1,0,0,1,0,0)">
        <path d="M20,20 L460,20 L460,156 L20,156 L20,20 z" fill-rule="evenodd" vector-effect="none"/>
      </g>
      <!--RAWSTRING-->
    </g>
    <!--RAWSTRING-->
    <g id="DVR_PI_fault_neural_ntwk:230">
      <!--RAWSTRING-->
      <g data-tags="blk">
        <!--RAWSTRING-->
        <g id="DVR_PI_fault_neural_ntwk:245">
          <g clip-path="none" fill="#ffffff" fill-opacity="1" opacity="1" stroke="none" stroke-opacity="0" transform="matrix(1,0,0,1,420,70)">
            <path d="M0,0 L40,0 L40,40 L0,40 L0,0 z" fill-rule="evenodd" vector-effect="none"/>
          </g>
          <!--RAWSTRING-->
          <g data-tags="blk">
            <defs>
              <clipPath id="clip2">
                <path d="M420,70 L460,70 L460,110 L420,110 L420,70 z"/>
              </clipPath>
            </defs>
            <g clip-path="url(#clip2)" fill="#78e6b4" fill-opacity="1" opacity="1" stroke="#78e6b4" stroke-linecap="square" stroke-linejoin="bevel" stroke-opacity="1" stroke-width="1" transform="matrix(1,0,0,1,0,0)">
              <path d="M420,110 L460,110 L460,70 L420,70 L420,110 z" fill-rule="evenodd" vector-effect="none"/>
            </g>
            <defs>
              <clipPath id="clip3">
                <path d="M420,70 L460,70 L460,110 L420,110 L420,70 z"/>
              </clipPath>
            </defs>
            <g clip-path="url(#clip3)" fill="#509978" fill-opacity="1" opacity="1" stroke="#509978" stroke-linecap="square" stroke-linejoin="bevel" stroke-opacity="1" stroke-width="1" transform="matrix(1,0,0,1,0,0)">
              <path d="M420,110 L460,110 L460,70 L457,72 L457,107 L422,107 L420,110 z" fill-rule="evenodd" vector-effect="none"/>
            </g>
            <defs>
              <clipPath id="clip4">
                <path d="M420,70 L460,70 L460,110 L420,110 L420,70 z"/>
              </clipPath>
            </defs>
            <g clip-path="url(#clip4)" fill="#a5eecd" fill-opacity="1" opacity="1" stroke="#a5eecd" stroke-linecap="square" stroke-linejoin="bevel" stroke-opacity="1" stroke-width="1" transform="matrix(1,0,0,1,0,0)">
              <path d="M420,110 L420,70 L460,70 L457,72 L422,72 L422,107 L420,110 z" fill-rule="evenodd" vector-effect="none"/>
            </g>
            <defs>
              <clipPath id="clip5">
                <path d="M419.5,69.5 L459.5,69.5 L459.5,109.5 L419.5,109.5 L419.5,69.5 z"/>
              </clipPath>
            </defs>
            <g clip-path="url(#clip5)" fill="#a5eecd" fill-opacity="1" opacity="1" stroke="#000000" stroke-linecap="square" stroke-linejoin="bevel" stroke-opacity="1" stroke-width="1" transform="matrix(1,0,0,1,0.5,0.5)">
              <polyline fill="none" points="420,109 459,109" vector-effect="none"/>
            </g>
            <defs>
              <clipPath id="clip6">
                <path d="M419.5,69.5 L459.5,69.5 L459.5,109.5 L419.5,109.5 L419.5,69.5 z"/>
              </clipPath>
            </defs>
            <g clip-path="url(#clip6)" fill="#a5eecd" fill-opacity="1" opacity="1" stroke="#000000" stroke-linecap="square" stroke-linejoin="bevel" stroke-opacity="1" stroke-width="1" transform="matrix(1,0,0,1,0.5,0.5)">
              <polyline fill="none" points="459,109 459,70" vector-effect="none"/>
            </g>
            <defs>
              <clipPath id="clip7">
                <path d="M419.5,69.5 L459.5,69.5 L459.5,109.5 L419.5,109.5 L419.5,69.5 z"/>
              </clipPath>
            </defs>
            <g clip-path="url(#clip7)" fill="#a5eecd" fill-opacity="1" opacity="1" stroke="#000000" stroke-linecap="square" stroke-linejoin="bevel" stroke-opacity="1" stroke-width="1" transform="matrix(1,0,0,1,0.5,0.5)">
              <polyline fill="none" points="459,70 420,70" vector-effect="none"/>
            </g>
            <defs>
              <clipPath id="clip8">
                <path d="M419.5,69.5 L459.5,69.5 L459.5,109.5 L419.5,109.5 L419.5,69.5 z"/>
              </clipPath>
            </defs>
            <g clip-path="url(#clip8)" fill="#a5eecd" fill-opacity="1" opacity="1" stroke="#000000" stroke-linecap="square" stroke-linejoin="bevel" stroke-opacity="1" stroke-width="1" transform="matrix(1,0,0,1,0.5,0.5)">
              <polyline fill="none" points="420,70 420,109" vector-effect="none"/>
            </g>
            <!--RAWSTRING-->
          </g>
          <!--RAWSTRING-->
          <g data-tags="blk frame">
            <g clip-path="none" fill="none" opacity="1" stroke="none" stroke-opacity="0" transform="matrix(1,0,0,1,420,70)">
              <path d="M0,0 L40,0 L40,40 L0,40 L0,0 z" fill-rule="evenodd" vector-effect="none"/>
            </g>
            <!--RAWSTRING-->
          </g>
          <!--RAWSTRING-->
          <g data-tags="blk BlockName">
            <defs>
              <clipPath id="clip9">
                <path d="M-411.625,-94 L32.375,-94 L32.375,44 L-411.625,44 L-411.625,-94 z"/>
              </clipPath>
            </defs>
            <g clip-path="url(#clip9)" fill="none" opacity="1" stroke="#000000" stroke-linecap="square" stroke-linejoin="bevel" stroke-opacity="1" stroke-width="1" transform="matrix(1,0,0,1,429.625,112)">
              <text fill="#000000" fill-opacity="1" font-family="Arial" font-size="10" font-style="normal" font-weight="400" stroke="none" textLength="17.75" x="1.5" xml:space="preserve" y="10">a{2}</text>
            </g>
            <!--RAWSTRING-->
          </g>
          <!--RAWSTRING-->
        </g>
        <!--RAWSTRING-->
      </g>
      <!--RAWSTRING-->
      <g data-tags="blk">
        <!--RAWSTRING-->
        <g id="DVR_PI_fault_neural_ntwk:244">
          <g clip-path="none" fill="#ffffff" fill-opacity="1" opacity="1" stroke="none" stroke-opacity="0" transform="matrix(1,0,0,1,340,70)">
            <path d="M0,0 L40,0 L40,40 L0,40 L0,0 z" fill-rule="evenodd" vector-effect="none"/>
          </g>
          <!--RAWSTRING-->
          <g data-tags="blk">
            <defs>
              <clipPath id="clip11">
                <path d="M340,70 L380,70 L380,110 L340,110 L340,70 z"/>
              </clipPath>
            </defs>
            <g clip-path="url(#clip11)" fill="#7896e6" fill-opacity="1" opacity="1" stroke="#7896e6" stroke-linecap="square" stroke-linejoin="bevel" stroke-opacity="1" stroke-width="1" transform="matrix(1,0,0,1,0,0)">
              <path d="M340,110 L380,110 L380,70 L340,70 L340,110 z" fill-rule="evenodd" vector-effect="none"/>
            </g>
            <defs>
              <clipPath id="clip12">
                <path d="M340,70 L380,70 L380,110 L340,110 L340,70 z"/>
              </clipPath>
            </defs>
            <g clip-path="url(#clip12)" fill="#506499" fill-opacity="1" opacity="1" stroke="#506499" stroke-linecap="square" stroke-linejoin="bevel" stroke-opacity="1" stroke-width="1" transform="matrix(1,0,0,1,0,0)">
              <path d="M340,110 L380,110 L380,70 L377,72 L377,107 L342,107 L340,110 z" fill-rule="evenodd" vector-effect="none"/>
            </g>
            <defs>
              <clipPath id="clip13">
                <path d="M340,70 L380,70 L380,110 L340,110 L340,70 z"/>
              </clipPath>
            </defs>
            <g clip-path="url(#clip13)" fill="#a5b9ee" fill-opacity="1" opacity="1" stroke="#a5b9ee" stroke-linecap="square" stroke-linejoin="bevel" stroke-opacity="1" stroke-width="1" transform="matrix(1,0,0,1,0,0)">
              <path d="M340,110 L340,70 L380,70 L377,72 L342,72 L342,107 L340,110 z" fill-rule="evenodd" vector-effect="none"/>
            </g>
            <defs>
              <clipPath id="clip14">
                <path d="M339.5,69.5 L379.5,69.5 L379.5,109.5 L339.5,109.5 L339.5,69.5 z"/>
              </clipPath>
            </defs>
            <g clip-path="url(#clip14)" fill="#a5b9ee" fill-opacity="1" opacity="1" stroke="#ffffff" stroke-linecap="square" stroke-linejoin="bevel" stroke-opacity="1" stroke-width="1" transform="matrix(1,0,0,1,0.5,0.5)">
              <polyline fill="none" points="346,90 373,90" vector-effect="none"/>
            </g>
            <defs>
              <clipPath id="clip15">
                <path d="M339.5,69.5 L379.5,69.5 L379.5,109.5 L339.5,109.5 L339.5,69.5 z"/>
              </clipPath>
            </defs>
            <g clip-path="url(#clip15)" fill="#a5b9ee" fill-opacity="1" opacity="1" stroke="#ffffff" stroke-linecap="square" stroke-linejoin="bevel" stroke-opacity="1" stroke-width="1" transform="matrix(1,0,0,1,0.5,0.5)">
              <polyline fill="none" points="360,103 360,76" vector-effect="none"/>
            </g>
            <defs>
              <clipPath id="clip16">
                <path d="M339.5,69.5 L379.5,69.5 L379.5,109.5 L339.5,109.5 L339.5,69.5 z"/>
              </clipPath>
            </defs>
            <g clip-path="url(#clip16)" fill="#a5b9ee" fill-opacity="1" opacity="1" stroke="#000000" stroke-linecap="square" stroke-linejoin="bevel" stroke-opacity="1" stroke-width="1" transform="matrix(1,0,0,1,0.5,0.5)">
              <polyline fill="none" points="346,103 373,76" vector-effect="none"/>
            </g>
            <defs>
              <clipPath id="clip17">
                <path d="M339.5,69.5 L379.5,69.5 L379.5,109.5 L339.5,109.5 L339.5,69.5 z"/>
              </clipPath>
            </defs>
            <g clip-path="url(#clip17)" fill="#a5b9ee" fill-opacity="1" opacity="1" stroke="#000000" stroke-linecap="square" stroke-linejoin="bevel" stroke-opacity="1" stroke-width="1" transform="matrix(1,0,0,1,0.5,0.5)">
              <polyline fill="none" points="340,109 379,109" vector-effect="none"/>
            </g>
            <defs>
              <clipPath id="clip18">
                <path d="M339.5,69.5 L379.5,69.5 L379.5,109.5 L339.5,109.5 L339.5,69.5 z"/>
              </clipPath>
            </defs>
            <g clip-path="url(#clip18)" fill="#a5b9ee" fill-opacity="1" opacity="1" stroke="#000000" stroke-linecap="square" stroke-linejoin="bevel" stroke-opacity="1" stroke-width="1" transform="matrix(1,0,0,1,0.5,0.5)">
              <polyline fill="none" points="379,109 379,70" vector-effect="none"/>
            </g>
            <defs>
              <clipPath id="clip19">
                <path d="M339.5,69.5 L379.5,69.5 L379.5,109.5 L339.5,109.5 L339.5,69.5 z"/>
              </clipPath>
            </defs>
            <g clip-path="url(#clip19)" fill="#a5b9ee" fill-opacity="1" opacity="1" stroke="#000000" stroke-linecap="square" stroke-linejoin="bevel" stroke-opacity="1" stroke-width="1" transform="matrix(1,0,0,1,0.5,0.5)">
              <polyline fill="none" points="379,70 340,70" vector-effect="none"/>
            </g>
            <defs>
              <clipPath id="clip20">
                <path d="M339.5,69.5 L379.5,69.5 L379.5,109.5 L339.5,109.5 L339.5,69.5 z"/>
              </clipPath>
            </defs>
            <g clip-path="url(#clip20)" fill="#a5b9ee" fill-opacity="1" opacity="1" stroke="#000000" stroke-linecap="square" stroke-linejoin="bevel" stroke-opacity="1" stroke-width="1" transform="matrix(1,0,0,1,0.5,0.5)">
              <polyline fill="none" points="340,70 340,109" vector-effect="none"/>
            </g>
            <!--RAWSTRING-->
          </g>
          <!--RAWSTRING-->
          <g data-tags="blk frame">
            <g clip-path="none" fill="none" opacity="1" stroke="none" stroke-opacity="0" transform="matrix(1,0,0,1,340,70)">
              <path d="M0,0 L40,0 L40,40 L0,40 L0,0 z" fill-rule="evenodd" vector-effect="none"/>
            </g>
            <!--RAWSTRING-->
          </g>
          <!--RAWSTRING-->
        </g>
        <!--RAWSTRING-->
      </g>
      <!--RAWSTRING-->
      <g data-tags="blk">
        <!--RAWSTRING-->
        <g id="DVR_PI_fault_neural_ntwk:243">
          <g clip-path="none" fill="#ffffff" fill-opacity="1" opacity="1" stroke="none" stroke-opacity="0" transform="matrix(1,0,0,1,260,70)">
            <path d="M0,0 L40,0 L40,40 L0,40 L0,0 z" fill-rule="evenodd" vector-effect="none"/>
          </g>
          <!--RAWSTRING-->
          <g data-tags="blk">
            <defs>
              <clipPath id="clip22">
                <path d="M260,70 L300,70 L300,110 L260,110 L260,70 z"/>
              </clipPath>
            </defs>
            <g clip-path="url(#clip22)" fill="#7896e6" fill-opacity="1" opacity="1" stroke="#7896e6" stroke-linecap="square" stroke-linejoin="bevel" stroke-opacity="1" stroke-width="1" transform="matrix(1,0,0,1,0,0)">
              <path d="M260,110 L300,110 L300,70 L260,70 L260,110 z" fill-rule="evenodd" vector-effect="none"/>
            </g>
            <defs>
              <clipPath id="clip23">
                <path d="M260,70 L300,70 L300,110 L260,110 L260,70 z"/>
              </clipPath>
            </defs>
            <g clip-path="url(#clip23)" fill="#506499" fill-opacity="1" opacity="1" stroke="#506499" stroke-linecap="square" stroke-linejoin="bevel" stroke-opacity="1" stroke-width="1" transform="matrix(1,0,0,1,0,0)">
              <path d="M260,110 L300,110 L300,70 L297,72 L297,107 L262,107 L260,110 z" fill-rule="evenodd" vector-effect="none"/>
            </g>
            <defs>
              <clipPath id="clip24">
                <path d="M260,70 L300,70 L300,110 L260,110 L260,70 z"/>
              </clipPath>
            </defs>
            <g clip-path="url(#clip24)" fill="#a5b9ee" fill-opacity="1" opacity="1" stroke="#a5b9ee" stroke-linecap="square" stroke-linejoin="bevel" stroke-opacity="1" stroke-width="1" transform="matrix(1,0,0,1,0,0)">
              <path d="M260,110 L260,70 L300,70 L297,72 L262,72 L262,107 L260,110 z" fill-rule="evenodd" vector-effect="none"/>
            </g>
            <defs>
              <clipPath id="clip25">
                <path d="M259.5,69.5 L299.5,69.5 L299.5,109.5 L259.5,109.5 L259.5,69.5 z"/>
              </clipPath>
            </defs>
            <g clip-path="url(#clip25)" fill="#a5b9ee" fill-opacity="1" opacity="1" stroke="#000000" stroke-linecap="square" stroke-linejoin="bevel" stroke-opacity="1" stroke-width="1" transform="matrix(1,0,0,1,0.5,0.5)">
              <polyline fill="none" points="260,109 299,109" vector-effect="none"/>
            </g>
            <defs>
              <clipPath id="clip26">
                <path d="M259.5,69.5 L299.5,69.5 L299.5,109.5 L259.5,109.5 L259.5,69.5 z"/>
              </clipPath>
            </defs>
            <g clip-path="url(#clip26)" fill="#a5b9ee" fill-opacity="1" opacity="1" stroke="#000000" stroke-linecap="square" stroke-linejoin="bevel" stroke-opacity="1" stroke-width="1" transform="matrix(1,0,0,1,0.5,0.5)">
              <polyline fill="none" points="299,109 299,70" vector-effect="none"/>
            </g>
            <defs>
              <clipPath id="clip27">
                <path d="M259.5,69.5 L299.5,69.5 L299.5,109.5 L259.5,109.5 L259.5,69.5 z"/>
              </clipPath>
            </defs>
            <g clip-path="url(#clip27)" fill="#a5b9ee" fill-opacity="1" opacity="1" stroke="#000000" stroke-linecap="square" stroke-linejoin="bevel" stroke-opacity="1" stroke-width="1" transform="matrix(1,0,0,1,0.5,0.5)">
              <polyline fill="none" points="299,70 260,70" vector-effect="none"/>
            </g>
            <defs>
              <clipPath id="clip28">
                <path d="M259.5,69.5 L299.5,69.5 L299.5,109.5 L259.5,109.5 L259.5,69.5 z"/>
              </clipPath>
            </defs>
            <g clip-path="url(#clip28)" fill="#a5b9ee" fill-opacity="1" opacity="1" stroke="#000000" stroke-linecap="square" stroke-linejoin="bevel" stroke-opacity="1" stroke-width="1" transform="matrix(1,0,0,1,0.5,0.5)">
              <polyline fill="none" points="260,70 260,109" vector-effect="none"/>
            </g>
            <defs>
              <clipPath id="clip29">
                <path d="M-20,-20 L20,-20 L20,20 L-20,20 L-20,-20 z"/>
              </clipPath>
            </defs>
            <g clip-path="url(#clip29)" fill="#a5b9ee" fill-opacity="1" opacity="1" stroke="#000000" stroke-linecap="square" stroke-linejoin="bevel" stroke-opacity="1" stroke-width="1" transform="matrix(1,0,0,1,280,90)">
              <text fill="#000000" fill-opacity="1" font-family="Arial" font-size="10" font-style="normal" font-weight="400" stroke="none" textLength="5.82812" x="-2.90625" xml:space="preserve" y="3.5">+</text>
            </g>
            <!--RAWSTRING-->
          </g>
          <!--RAWSTRING-->
          <g data-tags="blk frame">
            <g clip-path="none" fill="none" opacity="1" stroke="none" stroke-opacity="0" transform="matrix(1,0,0,1,260,70)">
              <path d="M0,0 L40,0 L40,40 L0,40 L0,0 z" fill-rule="evenodd" vector-effect="none"/>
            </g>
            <!--RAWSTRING-->
          </g>
          <!--RAWSTRING-->
        </g>
        <!--RAWSTRING-->
      </g>
      <!--RAWSTRING-->
      <g data-tags="blk">
        <!--RAWSTRING-->
        <g id="DVR_PI_fault_neural_ntwk:231">
          <g clip-path="none" fill="#ffffff" fill-opacity="1" opacity="1" stroke="none" stroke-opacity="0" transform="matrix(1,0,0,1,20,20)">
            <path d="M0,0 L40,0 L40,40 L0,40 L0,0 z" fill-rule="evenodd" vector-effect="none"/>
          </g>
          <!--RAWSTRING-->
          <g data-tags="blk">
            <defs>
              <clipPath id="clip31">
                <path d="M20,20 L60,20 L60,60 L20,60 L20,20 z"/>
              </clipPath>
            </defs>
            <g clip-path="url(#clip31)" fill="#78e6b4" fill-opacity="1" opacity="1" stroke="#78e6b4" stroke-linecap="square" stroke-linejoin="bevel" stroke-opacity="1" stroke-width="1" transform="matrix(1,0,0,1,0,0)">
              <path d="M20,60 L60,60 L60,20 L20,20 L20,60 z" fill-rule="evenodd" vector-effect="none"/>
            </g>
            <defs>
              <clipPath id="clip32">
                <path d="M20,20 L60,20 L60,60 L20,60 L20,20 z"/>
              </clipPath>
            </defs>
            <g clip-path="url(#clip32)" fill="#509978" fill-opacity="1" opacity="1" stroke="#509978" stroke-linecap="square" stroke-linejoin="bevel" stroke-opacity="1" stroke-width="1" transform="matrix(1,0,0,1,0,0)">
              <path d="M20,60 L60,60 L60,20 L57,22 L57,57 L22,57 L20,60 z" fill-rule="evenodd" vector-effect="none"/>
            </g>
            <defs>
              <clipPath id="clip33">
                <path d="M20,20 L60,20 L60,60 L20,60 L20,20 z"/>
              </clipPath>
            </defs>
            <g clip-path="url(#clip33)" fill="#a5eecd" fill-opacity="1" opacity="1" stroke="#a5eecd" stroke-linecap="square" stroke-linejoin="bevel" stroke-opacity="1" stroke-width="1" transform="matrix(1,0,0,1,0,0)">
              <path d="M20,60 L20,20 L60,20 L57,22 L22,22 L22,57 L20,60 z" fill-rule="evenodd" vector-effect="none"/>
            </g>
            <defs>
              <clipPath id="clip34">
                <path d="M19.5,19.5 L59.5,19.5 L59.5,59.5 L19.5,59.5 L19.5,19.5 z"/>
              </clipPath>
            </defs>
            <g clip-path="url(#clip34)" fill="#a5eecd" fill-opacity="1" opacity="1" stroke="#000000" stroke-linecap="square" stroke-linejoin="bevel" stroke-opacity="1" stroke-width="1" transform="matrix(1,0,0,1,0.5,0.5)">
              <polyline fill="none" points="20,59 59,59" vector-effect="none"/>
            </g>
            <defs>
              <clipPath id="clip35">
                <path d="M19.5,19.5 L59.5,19.5 L59.5,59.5 L19.5,59.5 L19.5,19.5 z"/>
              </clipPath>
            </defs>
            <g clip-path="url(#clip35)" fill="#a5eecd" fill-opacity="1" opacity="1" stroke="#000000" stroke-linecap="square" stroke-linejoin="bevel" stroke-opacity="1" stroke-width="1" transform="matrix(1,0,0,1,0.5,0.5)">
              <polyline fill="none" points="59,59 59,20" vector-effect="none"/>
            </g>
            <defs>
              <clipPath id="clip36">
                <path d="M19.5,19.5 L59.5,19.5 L59.5,59.5 L19.5,59.5 L19.5,19.5 z"/>
              </clipPath>
            </defs>
            <g clip-path="url(#clip36)" fill="#a5eecd" fill-opacity="1" opacity="1" stroke="#000000" stroke-linecap="square" stroke-linejoin="bevel" stroke-opacity="1" stroke-width="1" transform="matrix(1,0,0,1,0.5,0.5)">
              <polyline fill="none" points="59,20 20,20" vector-effect="none"/>
            </g>
            <defs>
              <clipPath id="clip37">
                <path d="M19.5,19.5 L59.5,19.5 L59.5,59.5 L19.5,59.5 L19.5,19.5 z"/>
              </clipPath>
            </defs>
            <g clip-path="url(#clip37)" fill="#a5eecd" fill-opacity="1" opacity="1" stroke="#000000" stroke-linecap="square" stroke-linejoin="bevel" stroke-opacity="1" stroke-width="1" transform="matrix(1,0,0,1,0.5,0.5)">
              <polyline fill="none" points="20,20 20,59" vector-effect="none"/>
            </g>
            <!--RAWSTRING-->
          </g>
          <!--RAWSTRING-->
          <g data-tags="blk frame">
            <g clip-path="none" fill="none" opacity="1" stroke="none" stroke-opacity="0" transform="matrix(1,0,0,1,20,20)">
              <path d="M0,0 L40,0 L40,40 L0,40 L0,0 z" fill-rule="evenodd" vector-effect="none"/>
            </g>
            <!--RAWSTRING-->
          </g>
          <!--RAWSTRING-->
          <g data-tags="blk BlockName">
            <defs>
              <clipPath id="clip38">
                <path d="M-10.7422,-44 L433.258,-44 L433.258,94 L-10.7422,94 L-10.7422,-44 z"/>
              </clipPath>
            </defs>
            <g clip-path="url(#clip38)" fill="none" opacity="1" stroke="#000000" stroke-linecap="square" stroke-linejoin="bevel" stroke-opacity="1" stroke-width="1" transform="matrix(1,0,0,1,28.7422,62)">
              <text fill="#000000" fill-opacity="1" font-family="Arial" font-size="10" font-style="normal" font-weight="400" stroke="none" textLength="19" x="1" xml:space="preserve" y="10">a{1}</text>
            </g>
            <!--RAWSTRING-->
          </g>
          <!--RAWSTRING-->
        </g>
        <!--RAWSTRING-->
      </g>
      <!--RAWSTRING-->
      <g data-tags="blk">
        <!--RAWSTRING-->
        <g id="DVR_PI_fault_neural_ntwk:232">
          <g clip-path="none" fill="#ffffff" fill-opacity="1" opacity="1" stroke="none" stroke-opacity="0" transform="matrix(1,0,0,1,100,40)">
            <path d="M0,0 L40,0 L40,40 L0,40 L0,0 z" fill-rule="evenodd" vector-effect="none"/>
          </g>
          <!--RAWSTRING-->
          <g data-tags="blk">
            <defs>
              <clipPath id="clip40">
                <path d="M100,40 L140,40 L140,80 L100,80 L100,40 z"/>
              </clipPath>
            </defs>
            <g clip-path="url(#clip40)" fill="#7896e6" fill-opacity="1" opacity="1" stroke="#7896e6" stroke-linecap="square" stroke-linejoin="bevel" stroke-opacity="1" stroke-width="1" transform="matrix(1,0,0,1,0,0)">
              <path d="M100,80 L140,80 L140,40 L100,40 L100,80 z" fill-rule="evenodd" vector-effect="none"/>
            </g>
            <defs>
              <clipPath id="clip41">
                <path d="M100,40 L140,40 L140,80 L100,80 L100,40 z"/>
              </clipPath>
            </defs>
            <g clip-path="url(#clip41)" fill="#506499" fill-opacity="1" opacity="1" stroke="#506499" stroke-linecap="square" stroke-linejoin="bevel" stroke-opacity="1" stroke-width="1" transform="matrix(1,0,0,1,0,0)">
              <path d="M100,80 L140,80 L140,40 L137,42 L137,77 L102,77 L100,80 z" fill-rule="evenodd" vector-effect="none"/>
            </g>
            <defs>
              <clipPath id="clip42">
                <path d="M100,40 L140,40 L140,80 L100,80 L100,40 z"/>
              </clipPath>
            </defs>
            <g clip-path="url(#clip42)" fill="#a5b9ee" fill-opacity="1" opacity="1" stroke="#a5b9ee" stroke-linecap="square" stroke-linejoin="bevel" stroke-opacity="1" stroke-width="1" transform="matrix(1,0,0,1,0,0)">
              <path d="M100,80 L100,40 L140,40 L137,42 L102,42 L102,77 L100,80 z" fill-rule="evenodd" vector-effect="none"/>
            </g>
            <defs>
              <clipPath id="clip43">
                <path d="M99.5,39.5 L139.5,39.5 L139.5,79.5 L99.5,79.5 L99.5,39.5 z"/>
              </clipPath>
            </defs>
            <g clip-path="url(#clip43)" fill="#a5b9ee" fill-opacity="1" opacity="1" stroke="#000000" stroke-linecap="square" stroke-linejoin="bevel" stroke-opacity="1" stroke-width="1" transform="matrix(1,0,0,1,0.5,0.5)">
              <polyline fill="none" points="100,79 139,79" vector-effect="none"/>
            </g>
            <defs>
              <clipPath id="clip44">
                <path d="M99.5,39.5 L139.5,39.5 L139.5,79.5 L99.5,79.5 L99.5,39.5 z"/>
              </clipPath>
            </defs>
            <g clip-path="url(#clip44)" fill="#a5b9ee" fill-opacity="1" opacity="1" stroke="#000000" stroke-linecap="square" stroke-linejoin="bevel" stroke-opacity="1" stroke-width="1" transform="matrix(1,0,0,1,0.5,0.5)">
              <polyline fill="none" points="139,79 139,40" vector-effect="none"/>
            </g>
            <defs>
              <clipPath id="clip45">
                <path d="M99.5,39.5 L139.5,39.5 L139.5,79.5 L99.5,79.5 L99.5,39.5 z"/>
              </clipPath>
            </defs>
            <g clip-path="url(#clip45)" fill="#a5b9ee" fill-opacity="1" opacity="1" stroke="#000000" stroke-linecap="square" stroke-linejoin="bevel" stroke-opacity="1" stroke-width="1" transform="matrix(1,0,0,1,0.5,0.5)">
              <polyline fill="none" points="139,40 100,40" vector-effect="none"/>
            </g>
            <defs>
              <clipPath id="clip46">
                <path d="M99.5,39.5 L139.5,39.5 L139.5,79.5 L99.5,79.5 L99.5,39.5 z"/>
              </clipPath>
            </defs>
            <g clip-path="url(#clip46)" fill="#a5b9ee" fill-opacity="1" opacity="1" stroke="#000000" stroke-linecap="square" stroke-linejoin="bevel" stroke-opacity="1" stroke-width="1" transform="matrix(1,0,0,1,0.5,0.5)">
              <polyline fill="none" points="100,40 100,79" vector-effect="none"/>
            </g>
            <defs>
              <clipPath id="clip47">
                <path d="M-20,-20 L20,-20 L20,20 L-20,20 L-20,-20 z"/>
              </clipPath>
            </defs>
            <g clip-path="url(#clip47)" fill="#a5b9ee" fill-opacity="1" opacity="1" stroke="#000000" stroke-linecap="square" stroke-linejoin="bevel" stroke-opacity="1" stroke-width="1" transform="matrix(1,0,0,1,120,60)">
              <text fill="#000000" fill-opacity="1" font-family="Arial" font-size="10" font-style="normal" font-weight="400" stroke="none" textLength="5.54688" x="-2.76562" xml:space="preserve" y="3.5">0</text>
            </g>
            <!--RAWSTRING-->
          </g>
          <!--RAWSTRING-->
          <g data-tags="blk frame">
            <g clip-path="none" fill="none" opacity="1" stroke="none" stroke-opacity="0" transform="matrix(1,0,0,1,100,40)">
              <path d="M0,0 L40,0 L40,40 L0,40 L0,0 z" fill-rule="evenodd" vector-effect="none"/>
            </g>
            <!--RAWSTRING-->
          </g>
          <!--RAWSTRING-->
          <g data-tags="blk BlockName">
            <defs>
              <clipPath id="clip48">
                <path d="M-81.5781,-64 L362.422,-64 L362.422,74 L-81.5781,74 L-81.5781,-64 z"/>
              </clipPath>
            </defs>
            <g clip-path="url(#clip48)" fill="none" opacity="1" stroke="#000000" stroke-linecap="square" stroke-linejoin="bevel" stroke-opacity="1" stroke-width="1" transform="matrix(1,0,0,1,99.5781,82)">
              <text fill="#000000" fill-opacity="1" font-family="Arial" font-size="10" font-style="normal" font-weight="400" stroke="none" textLength="38.8438" x="1" xml:space="preserve" y="10">Delays 1</text>
            </g>
            <!--RAWSTRING-->
          </g>
          <!--RAWSTRING-->
        </g>
        <!--RAWSTRING-->
      </g>
      <!--RAWSTRING-->
      <g data-tags="blk">
        <!--RAWSTRING-->
        <g id="DVR_PI_fault_neural_ntwk:236">
          <g clip-path="none" fill="#ffffff" fill-opacity="1" opacity="1" stroke="none" stroke-opacity="0" transform="matrix(1,0,0,1,180,40)">
            <path d="M0,0 L40,0 L40,40 L0,40 L0,0 z" fill-rule="evenodd" vector-effect="none"/>
          </g>
          <!--RAWSTRING-->
          <g data-tags="blk">
            <defs>
              <clipPath id="clip50">
                <path d="M180,40 L220,40 L220,80 L180,80 L180,40 z"/>
              </clipPath>
            </defs>
            <g clip-path="url(#clip50)" fill="#7896e6" fill-opacity="1" opacity="1" stroke="#7896e6" stroke-linecap="square" stroke-linejoin="bevel" stroke-opacity="1" stroke-width="1" transform="matrix(1,0,0,1,0,0)">
              <path d="M180,80 L220,80 L220,40 L180,40 L180,80 z" fill-rule="evenodd" vector-effect="none"/>
            </g>
            <defs>
              <clipPath id="clip51">
                <path d="M180,40 L220,40 L220,80 L180,80 L180,40 z"/>
              </clipPath>
            </defs>
            <g clip-path="url(#clip51)" fill="#506499" fill-opacity="1" opacity="1" stroke="#506499" stroke-linecap="square" stroke-linejoin="bevel" stroke-opacity="1" stroke-width="1" transform="matrix(1,0,0,1,0,0)">
              <path d="M180,80 L220,80 L220,40 L217,42 L217,77 L182,77 L180,80 z" fill-rule="evenodd" vector-effect="none"/>
            </g>
            <defs>
              <clipPath id="clip52">
                <path d="M180,40 L220,40 L220,80 L180,80 L180,40 z"/>
              </clipPath>
            </defs>
            <g clip-path="url(#clip52)" fill="#a5b9ee" fill-opacity="1" opacity="1" stroke="#a5b9ee" stroke-linecap="square" stroke-linejoin="bevel" stroke-opacity="1" stroke-width="1" transform="matrix(1,0,0,1,0,0)">
              <path d="M180,80 L180,40 L220,40 L217,42 L182,42 L182,77 L180,80 z" fill-rule="evenodd" vector-effect="none"/>
            </g>
            <defs>
              <clipPath id="clip53">
                <path d="M179.5,39.5 L219.5,39.5 L219.5,79.5 L179.5,79.5 L179.5,39.5 z"/>
              </clipPath>
            </defs>
            <g clip-path="url(#clip53)" fill="#a5b9ee" fill-opacity="1" opacity="1" stroke="#000000" stroke-linecap="square" stroke-linejoin="bevel" stroke-opacity="1" stroke-width="1" transform="matrix(1,0,0,1,0.5,0.5)">
              <polyline fill="none" points="180,79 219,79" vector-effect="none"/>
            </g>
            <defs>
              <clipPath id="clip54">
                <path d="M179.5,39.5 L219.5,39.5 L219.5,79.5 L179.5,79.5 L179.5,39.5 z"/>
              </clipPath>
            </defs>
            <g clip-path="url(#clip54)" fill="#a5b9ee" fill-opacity="1" opacity="1" stroke="#000000" stroke-linecap="square" stroke-linejoin="bevel" stroke-opacity="1" stroke-width="1" transform="matrix(1,0,0,1,0.5,0.5)">
              <polyline fill="none" points="219,79 219,40" vector-effect="none"/>
            </g>
            <defs>
              <clipPath id="clip55">
                <path d="M179.5,39.5 L219.5,39.5 L219.5,79.5 L179.5,79.5 L179.5,39.5 z"/>
              </clipPath>
            </defs>
            <g clip-path="url(#clip55)" fill="#a5b9ee" fill-opacity="1" opacity="1" stroke="#000000" stroke-linecap="square" stroke-linejoin="bevel" stroke-opacity="1" stroke-width="1" transform="matrix(1,0,0,1,0.5,0.5)">
              <polyline fill="none" points="219,40 180,40" vector-effect="none"/>
            </g>
            <defs>
              <clipPath id="clip56">
                <path d="M179.5,39.5 L219.5,39.5 L219.5,79.5 L179.5,79.5 L179.5,39.5 z"/>
              </clipPath>
            </defs>
            <g clip-path="url(#clip56)" fill="#a5b9ee" fill-opacity="1" opacity="1" stroke="#000000" stroke-linecap="square" stroke-linejoin="bevel" stroke-opacity="1" stroke-width="1" transform="matrix(1,0,0,1,0.5,0.5)">
              <polyline fill="none" points="180,40 180,79" vector-effect="none"/>
            </g>
            <defs>
              <clipPath id="clip57">
                <path d="M-20,-20 L20,-20 L20,20 L-20,20 L-20,-20 z"/>
              </clipPath>
            </defs>
            <g clip-path="url(#clip57)" fill="#a5b9ee" fill-opacity="1" opacity="1" stroke="#000000" stroke-linecap="square" stroke-linejoin="bevel" stroke-opacity="1" stroke-width="1" transform="matrix(1,0,0,1,200,60)">
              <text fill="#000000" fill-opacity="1" font-family="Arial" font-size="10" font-style="normal" font-weight="400" stroke="none" textLength="9.4375" x="-4.71875" xml:space="preserve" y="3.5">W</text>
            </g>
            <!--RAWSTRING-->
          </g>
          <!--RAWSTRING-->
          <g data-tags="blk frame">
            <g clip-path="none" fill="none" opacity="1" stroke="none" stroke-opacity="0" transform="matrix(1,0,0,1,180,40)">
              <path d="M0,0 L40,0 L40,40 L0,40 L0,0 z" fill-rule="evenodd" vector-effect="none"/>
            </g>
            <!--RAWSTRING-->
          </g>
          <!--RAWSTRING-->
          <g data-tags="blk BlockName">
            <defs>
              <clipPath id="clip58">
                <path d="M-163.117,-64 L280.883,-64 L280.883,74 L-163.117,74 L-163.117,-64 z"/>
              </clipPath>
            </defs>
            <g clip-path="url(#clip58)" fill="none" opacity="1" stroke="#000000" stroke-linecap="square" stroke-linejoin="bevel" stroke-opacity="1" stroke-width="1" transform="matrix(1,0,0,1,181.117,82)">
              <text fill="#000000" fill-opacity="1" font-family="Arial" font-size="10" font-style="normal" font-weight="400" stroke="none" textLength="34.7656" x="1.5" xml:space="preserve" y="10">LW{2,1}</text>
            </g>
            <!--RAWSTRING-->
          </g>
          <!--RAWSTRING-->
        </g>
        <!--RAWSTRING-->
      </g>
      <!--RAWSTRING-->
      <g data-tags="blk">
        <!--RAWSTRING-->
        <g id="DVR_PI_fault_neural_ntwk:242">
          <g clip-path="none" fill="#ffffff" fill-opacity="1" opacity="1" stroke="none" stroke-opacity="0" transform="matrix(1,0,0,1,180,100)">
            <path d="M0,0 L40,0 L40,40 L0,40 L0,0 z" fill-rule="evenodd" vector-effect="none"/>
          </g>
          <!--RAWSTRING-->
          <g data-tags="blk">
            <defs>
              <clipPath id="clip60">
                <path d="M180,100 L220,100 L220,140 L180,140 L180,100 z"/>
              </clipPath>
            </defs>
            <g clip-path="url(#clip60)" fill="#7896e6" fill-opacity="1" opacity="1" stroke="#7896e6" stroke-linecap="square" stroke-linejoin="bevel" stroke-opacity="1" stroke-width="1" transform="matrix(1,0,0,1,0,0)">
              <path d="M180,140 L220,140 L220,100 L180,100 L180,140 z" fill-rule="evenodd" vector-effect="none"/>
            </g>
            <defs>
              <clipPath id="clip61">
                <path d="M180,100 L220,100 L220,140 L180,140 L180,100 z"/>
              </clipPath>
            </defs>
            <g clip-path="url(#clip61)" fill="#506499" fill-opacity="1" opacity="1" stroke="#506499" stroke-linecap="square" stroke-linejoin="bevel" stroke-opacity="1" stroke-width="1" transform="matrix(1,0,0,1,0,0)">
              <path d="M180,140 L220,140 L220,100 L217,102 L217,137 L182,137 L180,140 z" fill-rule="evenodd" vector-effect="none"/>
            </g>
            <defs>
              <clipPath id="clip62">
                <path d="M180,100 L220,100 L220,140 L180,140 L180,100 z"/>
              </clipPath>
            </defs>
            <g clip-path="url(#clip62)" fill="#a5b9ee" fill-opacity="1" opacity="1" stroke="#a5b9ee" stroke-linecap="square" stroke-linejoin="bevel" stroke-opacity="1" stroke-width="1" transform="matrix(1,0,0,1,0,0)">
              <path d="M180,140 L180,100 L220,100 L217,102 L182,102 L182,137 L180,140 z" fill-rule="evenodd" vector-effect="none"/>
            </g>
            <defs>
              <clipPath id="clip63">
                <path d="M179.5,99.5 L219.5,99.5 L219.5,139.5 L179.5,139.5 L179.5,99.5 z"/>
              </clipPath>
            </defs>
            <g clip-path="url(#clip63)" fill="#a5b9ee" fill-opacity="1" opacity="1" stroke="#000000" stroke-linecap="square" stroke-linejoin="bevel" stroke-opacity="1" stroke-width="1" transform="matrix(1,0,0,1,0.5,0.5)">
              <polyline fill="none" points="180,139 219,139" vector-effect="none"/>
            </g>
            <defs>
              <clipPath id="clip64">
                <path d="M179.5,99.5 L219.5,99.5 L219.5,139.5 L179.5,139.5 L179.5,99.5 z"/>
              </clipPath>
            </defs>
            <g clip-path="url(#clip64)" fill="#a5b9ee" fill-opacity="1" opacity="1" stroke="#000000" stroke-linecap="square" stroke-linejoin="bevel" stroke-opacity="1" stroke-width="1" transform="matrix(1,0,0,1,0.5,0.5)">
              <polyline fill="none" points="219,139 219,100" vector-effect="none"/>
            </g>
            <defs>
              <clipPath id="clip65">
                <path d="M179.5,99.5 L219.5,99.5 L219.5,139.5 L179.5,139.5 L179.5,99.5 z"/>
              </clipPath>
            </defs>
            <g clip-path="url(#clip65)" fill="#a5b9ee" fill-opacity="1" opacity="1" stroke="#000000" stroke-linecap="square" stroke-linejoin="bevel" stroke-opacity="1" stroke-width="1" transform="matrix(1,0,0,1,0.5,0.5)">
              <polyline fill="none" points="219,100 180,100" vector-effect="none"/>
            </g>
            <defs>
              <clipPath id="clip66">
                <path d="M179.5,99.5 L219.5,99.5 L219.5,139.5 L179.5,139.5 L179.5,99.5 z"/>
              </clipPath>
            </defs>
            <g clip-path="url(#clip66)" fill="#a5b9ee" fill-opacity="1" opacity="1" stroke="#000000" stroke-linecap="square" stroke-linejoin="bevel" stroke-opacity="1" stroke-width="1" transform="matrix(1,0,0,1,0.5,0.5)">
              <polyline fill="none" points="180,100 180,139" vector-effect="none"/>
            </g>
            <defs>
              <clipPath id="clip67">
                <path d="M-20,-20 L20,-20 L20,20 L-20,20 L-20,-20 z"/>
              </clipPath>
            </defs>
            <g clip-path="url(#clip67)" fill="#a5b9ee" fill-opacity="1" opacity="1" stroke="#000000" stroke-linecap="square" stroke-linejoin="bevel" stroke-opacity="1" stroke-width="1" transform="matrix(1,0,0,1,200,120)">
              <text fill="#000000" fill-opacity="1" font-family="Arial" font-size="10" font-style="normal" font-weight="400" stroke="none" textLength="5.54688" x="-2.76562" xml:space="preserve" y="3.5">b</text>
            </g>
            <!--RAWSTRING-->
          </g>
          <!--RAWSTRING-->
          <g data-tags="blk frame">
            <g clip-path="none" fill="none" opacity="1" stroke="none" stroke-opacity="0" transform="matrix(1,0,0,1,180,100)">
              <path d="M0,0 L40,0 L40,40 L0,40 L0,0 z" fill-rule="evenodd" vector-effect="none"/>
            </g>
            <!--RAWSTRING-->
          </g>
          <!--RAWSTRING-->
          <g data-tags="blk BlockName">
            <defs>
              <clipPath id="clip68">
                <path d="M-171.625,-124 L272.375,-124 L272.375,14 L-171.625,14 L-171.625,-124 z"/>
              </clipPath>
            </defs>
            <g clip-path="url(#clip68)" fill="none" opacity="1" stroke="#000000" stroke-linecap="square" stroke-linejoin="bevel" stroke-opacity="1" stroke-width="1" transform="matrix(1,0,0,1,189.625,142)">
              <text fill="#000000" fill-opacity="1" font-family="Arial" font-size="10" font-style="normal" font-weight="400" stroke="none" textLength="17.75" x="1.5" xml:space="preserve" y="10">b{2}</text>
            </g>
            <!--RAWSTRING-->
          </g>
          <!--RAWSTRING-->
        </g>
        <!--RAWSTRING-->
      </g>
      <!--RAWSTRING-->
      <g id="DVR_PI_fault_neural_ntwk:231#out:1">
        <!--RAWSTRING-->
        <g data-tags="PathIntersectionsEnabledTag">
          <g clip-path="none" fill="#000000" fill-opacity="1" opacity="1" stroke="none" stroke-opacity="0" transform="matrix(1,0,0,1,100,60)">
            <path d="M0,0 L-8,-4 L-8,4 L0,0 z" fill-rule="nonzero" vector-effect="none"/>
          </g>
          <g clip-path="none" fill="none" opacity="1" stroke="#000000" stroke-linecap="butt" stroke-linejoin="miter" stroke-miterlimit="2" stroke-opacity="1" stroke-width="1" transform="matrix(1,0,0,1,0,0)">
            <path d="M60,40 L65,40 L85,60 L92,60" fill-rule="evenodd" vector-effect="none"/>
          </g>
          <!--RAWSTRING-->
        </g>
        <!--RAWSTRING-->
      </g>
      <!--RAWSTRING-->
      <g id="DVR_PI_fault_neural_ntwk:232#out:1">
        <!--RAWSTRING-->
        <g data-tags="PathIntersectionsEnabledTag">
          <g clip-path="none" fill="#000000" fill-opacity="1" opacity="1" stroke="none" stroke-opacity="0" transform="matrix(1,0,0,1,180,60)">
            <path d="M0,0 L-8,-4 L-8,4 L0,0 z" fill-rule="nonzero" vector-effect="none"/>
          </g>
          <g clip-path="none" fill="none" opacity="1" stroke="#000000" stroke-linecap="butt" stroke-linejoin="miter" stroke-miterlimit="2" stroke-opacity="1" stroke-width="1" transform="matrix(1,0,0,1,0,0)">
            <path d="M140,60 L172,60" fill-rule="evenodd" vector-effect="none"/>
          </g>
          <!--RAWSTRING-->
        </g>
        <!--RAWSTRING-->
      </g>
      <!--RAWSTRING-->
      <g id="DVR_PI_fault_neural_ntwk:236#out:1">
        <!--RAWSTRING-->
        <g data-tags="PathIntersectionsEnabledTag">
          <g clip-path="none" fill="#000000" fill-opacity="1" opacity="1" stroke="none" stroke-opacity="0" transform="matrix(1,0,0,1,260,80)">
            <path d="M0,0 L-8,-4 L-8,4 L0,0 z" fill-rule="nonzero" vector-effect="none"/>
          </g>
          <g clip-path="none" fill="none" opacity="1" stroke="#000000" stroke-linecap="butt" stroke-linejoin="miter" stroke-miterlimit="2" stroke-opacity="1" stroke-width="1" transform="matrix(1,0,0,1,0,0)">
            <path d="M220,60 L225,60 L245,80 L252,80" fill-rule="evenodd" vector-effect="none"/>
          </g>
          <!--RAWSTRING-->
        </g>
        <!--RAWSTRING-->
      </g>
      <!--RAWSTRING-->
      <g id="DVR_PI_fault_neural_ntwk:242#out:1">
        <!--RAWSTRING-->
        <g data-tags="PathIntersectionsEnabledTag">
          <g clip-path="none" fill="#000000" fill-opacity="1" opacity="1" stroke="none" stroke-opacity="0" transform="matrix(1,0,0,1,260,100)">
            <path d="M0,0 L-8,-4 L-8,4 L0,0 z" fill-rule="nonzero" vector-effect="none"/>
          </g>
          <g clip-path="none" fill="none" opacity="1" stroke="#000000" stroke-linecap="butt" stroke-linejoin="miter" stroke-miterlimit="2" stroke-opacity="1" stroke-width="1" transform="matrix(1,0,0,1,0,0)">
            <path d="M220,120 L225,120 L245,100 L252,100" fill-rule="evenodd" vector-effect="none"/>
          </g>
          <!--RAWSTRING-->
        </g>
        <!--RAWSTRING-->
      </g>
      <!--RAWSTRING-->
      <g id="DVR_PI_fault_neural_ntwk:243#out:1">
        <!--RAWSTRING-->
        <g data-tags="PathIntersectionsEnabledTag">
          <g clip-path="none" fill="#000000" fill-opacity="1" opacity="1" stroke="none" stroke-opacity="0" transform="matrix(1,0,0,1,340,90)">
            <path d="M0,0 L-8,-4 L-8,4 L0,0 z" fill-rule="nonzero" vector-effect="none"/>
          </g>
          <g clip-path="none" fill="none" opacity="1" stroke="#000000" stroke-linecap="butt" stroke-linejoin="miter" stroke-miterlimit="2" stroke-opacity="1" stroke-width="1" transform="matrix(1,0,0,1,0,0)">
            <path d="M300,90 L332,90" fill-rule="evenodd" vector-effect="none"/>
          </g>
          <!--RAWSTRING-->
        </g>
        <!--RAWSTRING-->
      </g>
      <!--RAWSTRING-->
      <g id="DVR_PI_fault_neural_ntwk:244#out:1">
        <!--RAWSTRING-->
        <g data-tags="PathIntersectionsEnabledTag">
          <g clip-path="none" fill="#000000" fill-opacity="1" opacity="1" stroke="none" stroke-opacity="0" transform="matrix(1,0,0,1,420,90)">
            <path d="M0,0 L-8,-4 L-8,4 L0,0 z" fill-rule="nonzero" vector-effect="none"/>
          </g>
          <g clip-path="none" fill="none" opacity="1" stroke="#000000" stroke-linecap="butt" stroke-linejoin="miter" stroke-miterlimit="2" stroke-opacity="1" stroke-width="1" transform="matrix(1,0,0,1,0,0)">
            <path d="M380,90 L412,90" fill-rule="evenodd" vector-effect="none"/>
          </g>
          <!--RAWSTRING-->
        </g>
        <!--RAWSTRING-->
      </g>
      <!--RAWSTRING-->
    </g>
  </g>
  <!--generated on windows @ 2022-11-27 22:09:15 E. Africa Standard Time-->
</svg>
