<?xml version="1.0" encoding="UTF-8" standalone="no"?>
<svg xmlns="http://www.w3.org/2000/svg" xmlns:xlink="http://www.w3.org/1999/xlink" display="inline" height="58.000000px" preserveAspectRatio="xMinYMin meet" viewBox="33.25 39.00 295.05 58.00" width="295.054688px" x="0" y="0" zoomAndPan="disable">
  <g fill="none" stroke="black" stroke-width="1" fill-rule="evenodd" stroke-linecap="square" stroke-linejoin="bevel">
    <!--RAWSTRING-->
    <g id="background" pointer-events="none">
      <g clip-path="none" fill="#ffffff" fill-opacity="1" opacity="1" stroke="none" stroke-opacity="0" transform="matrix(1,0,0,1,0,0)">
        <path d="M34.25,40 L327.305,40 L327.305,96 L34.25,96 L34.25,40 z" fill-rule="evenodd" vector-effect="none"/>
      </g>
      <!--RAWSTRING-->
    </g>
    <!--RAWSTRING-->
    <g id="DVR_PI_fault_neural_ntwk:72">
      <!--RAWSTRING-->
      <g data-tags="blk">
        <!--RAWSTRING-->
        <g id="DVR_PI_fault_neural_ntwk:73">
          <g clip-path="none" fill="#ffffff" fill-opacity="1" opacity="1" stroke="none" stroke-opacity="0" transform="matrix(1,0,0,1,60,40)">
            <path d="M0,0 L20,0 L20,20 L0,20 L0,0 z" fill-rule="evenodd" vector-effect="none"/>
          </g>
          <!--RAWSTRING-->
          <g data-tags="blk">
            <defs>
              <clipPath id="clip2">
                <path d="M60,40 L80,40 L80,60 L60,60 L60,40 z"/>
              </clipPath>
            </defs>
            <g clip-path="url(#clip2)" fill="#78e6b4" fill-opacity="1" opacity="1" stroke="#78e6b4" stroke-linecap="square" stroke-linejoin="bevel" stroke-opacity="1" stroke-width="1" transform="matrix(1,0,0,1,0,0)">
              <path d="M60,60 L80,60 L80,40 L60,40 L60,60 z" fill-rule="evenodd" vector-effect="none"/>
            </g>
            <defs>
              <clipPath id="clip3">
                <path d="M60,40 L80,40 L80,60 L60,60 L60,40 z"/>
              </clipPath>
            </defs>
            <g clip-path="url(#clip3)" fill="#509978" fill-opacity="1" opacity="1" stroke="#509978" stroke-linecap="square" stroke-linejoin="bevel" stroke-opacity="1" stroke-width="1" transform="matrix(1,0,0,1,0,0)">
              <path d="M60,60 L80,60 L80,40 L78,41 L78,58 L61,58 L60,60 z" fill-rule="evenodd" vector-effect="none"/>
            </g>
            <defs>
              <clipPath id="clip4">
                <path d="M60,40 L80,40 L80,60 L60,60 L60,40 z"/>
              </clipPath>
            </defs>
            <g clip-path="url(#clip4)" fill="#a5eecd" fill-opacity="1" opacity="1" stroke="#a5eecd" stroke-linecap="square" stroke-linejoin="bevel" stroke-opacity="1" stroke-width="1" transform="matrix(1,0,0,1,0,0)">
              <path d="M60,60 L60,40 L80,40 L78,41 L61,41 L61,58 L60,60 z" fill-rule="evenodd" vector-effect="none"/>
            </g>
            <defs>
              <clipPath id="clip5">
                <path d="M59.5,39.5 L79.5,39.5 L79.5,59.5 L59.5,59.5 L59.5,39.5 z"/>
              </clipPath>
            </defs>
            <g clip-path="url(#clip5)" fill="#a5eecd" fill-opacity="1" opacity="1" stroke="#000000" stroke-linecap="square" stroke-linejoin="bevel" stroke-opacity="1" stroke-width="1" transform="matrix(1,0,0,1,0.5,0.5)">
              <polyline fill="none" points="60,59 79,59" vector-effect="none"/>
            </g>
            <defs>
              <clipPath id="clip6">
                <path d="M59.5,39.5 L79.5,39.5 L79.5,59.5 L59.5,59.5 L59.5,39.5 z"/>
              </clipPath>
            </defs>
            <g clip-path="url(#clip6)" fill="#a5eecd" fill-opacity="1" opacity="1" stroke="#000000" stroke-linecap="square" stroke-linejoin="bevel" stroke-opacity="1" stroke-width="1" transform="matrix(1,0,0,1,0.5,0.5)">
              <polyline fill="none" points="79,59 79,40" vector-effect="none"/>
            </g>
            <defs>
              <clipPath id="clip7">
                <path d="M59.5,39.5 L79.5,39.5 L79.5,59.5 L59.5,59.5 L59.5,39.5 z"/>
              </clipPath>
            </defs>
            <g clip-path="url(#clip7)" fill="#a5eecd" fill-opacity="1" opacity="1" stroke="#000000" stroke-linecap="square" stroke-linejoin="bevel" stroke-opacity="1" stroke-width="1" transform="matrix(1,0,0,1,0.5,0.5)">
              <polyline fill="none" points="79,40 60,40" vector-effect="none"/>
            </g>
            <defs>
              <clipPath id="clip8">
                <path d="M59.5,39.5 L79.5,39.5 L79.5,59.5 L59.5,59.5 L59.5,39.5 z"/>
              </clipPath>
            </defs>
            <g clip-path="url(#clip8)" fill="#a5eecd" fill-opacity="1" opacity="1" stroke="#000000" stroke-linecap="square" stroke-linejoin="bevel" stroke-opacity="1" stroke-width="1" transform="matrix(1,0,0,1,0.5,0.5)">
              <polyline fill="none" points="60,40 60,59" vector-effect="none"/>
            </g>
            <!--RAWSTRING-->
          </g>
          <!--RAWSTRING-->
          <g data-tags="blk frame">
            <g clip-path="none" fill="none" opacity="1" stroke="none" stroke-opacity="0" transform="matrix(1,0,0,1,60,40)">
              <path d="M0,0 L20,0 L20,20 L0,20 L0,0 z" fill-rule="evenodd" vector-effect="none"/>
            </g>
            <!--RAWSTRING-->
          </g>
          <!--RAWSTRING-->
          <g data-tags="blk BlockName">
            <defs>
              <clipPath id="clip9">
                <path d="M0,-5 L293.055,-5 L293.055,53 L0,53 L0,-5 z"/>
              </clipPath>
            </defs>
            <g clip-path="url(#clip9)" fill="none" opacity="1" stroke="#000000" stroke-linecap="square" stroke-linejoin="bevel" stroke-opacity="1" stroke-width="1" transform="matrix(1,0,0,1,34.25,43)">
              <text fill="#000000" fill-opacity="1" font-family="Arial" font-size="10" font-style="normal" font-weight="400" stroke="none" textLength="17.75" x="2" xml:space="preserve" y="10">p{1}</text>
            </g>
            <!--RAWSTRING-->
          </g>
          <!--RAWSTRING-->
        </g>
        <!--RAWSTRING-->
      </g>
      <!--RAWSTRING-->
      <g data-tags="blk">
        <!--RAWSTRING-->
        <g id="DVR_PI_fault_neural_ntwk:74">
          <g clip-path="none" fill="#ffffff" fill-opacity="1" opacity="1" stroke="none" stroke-opacity="0" transform="matrix(1,0,0,1,200,60)">
            <path d="M0,0 L40,0 L40,20 L0,20 L0,0 z" fill-rule="evenodd" vector-effect="none"/>
          </g>
          <!--RAWSTRING-->
          <g data-tags="blk">
            <defs>
              <clipPath id="clip11">
                <path d="M200,60 L240,60 L240,80 L200,80 L200,60 z"/>
              </clipPath>
            </defs>
            <g clip-path="url(#clip11)" fill="#7896e6" fill-opacity="1" opacity="1" stroke="#7896e6" stroke-linecap="square" stroke-linejoin="bevel" stroke-opacity="1" stroke-width="1" transform="matrix(1,0,0,1,0,0)">
              <path d="M200,80 L240,80 L240,60 L200,60 L200,80 z" fill-rule="evenodd" vector-effect="none"/>
            </g>
            <defs>
              <clipPath id="clip12">
                <path d="M200,60 L240,60 L240,80 L200,80 L200,60 z"/>
              </clipPath>
            </defs>
            <g clip-path="url(#clip12)" fill="#506499" fill-opacity="1" opacity="1" stroke="#506499" stroke-linecap="square" stroke-linejoin="bevel" stroke-opacity="1" stroke-width="1" transform="matrix(1,0,0,1,0,0)">
              <path d="M200,80 L240,80 L240,60 L237,61 L237,78 L202,78 L200,80 z" fill-rule="evenodd" vector-effect="none"/>
            </g>
            <defs>
              <clipPath id="clip13">
                <path d="M200,60 L240,60 L240,80 L200,80 L200,60 z"/>
              </clipPath>
            </defs>
            <g clip-path="url(#clip13)" fill="#a5b9ee" fill-opacity="1" opacity="1" stroke="#a5b9ee" stroke-linecap="square" stroke-linejoin="bevel" stroke-opacity="1" stroke-width="1" transform="matrix(1,0,0,1,0,0)">
              <path d="M200,80 L200,60 L240,60 L237,61 L202,61 L202,78 L200,80 z" fill-rule="evenodd" vector-effect="none"/>
            </g>
            <defs>
              <clipPath id="clip14">
                <path d="M199.5,59.5 L239.5,59.5 L239.5,79.5 L199.5,79.5 L199.5,59.5 z"/>
              </clipPath>
            </defs>
            <g clip-path="url(#clip14)" fill="#a5b9ee" fill-opacity="1" opacity="1" stroke="#000000" stroke-linecap="square" stroke-linejoin="bevel" stroke-opacity="1" stroke-width="1" transform="matrix(1,0,0,1,0.5,0.5)">
              <polyline fill="none" points="200,79 239,79" vector-effect="none"/>
            </g>
            <defs>
              <clipPath id="clip15">
                <path d="M199.5,59.5 L239.5,59.5 L239.5,79.5 L199.5,79.5 L199.5,59.5 z"/>
              </clipPath>
            </defs>
            <g clip-path="url(#clip15)" fill="#a5b9ee" fill-opacity="1" opacity="1" stroke="#000000" stroke-linecap="square" stroke-linejoin="bevel" stroke-opacity="1" stroke-width="1" transform="matrix(1,0,0,1,0.5,0.5)">
              <polyline fill="none" points="239,79 239,60" vector-effect="none"/>
            </g>
            <defs>
              <clipPath id="clip16">
                <path d="M199.5,59.5 L239.5,59.5 L239.5,79.5 L199.5,79.5 L199.5,59.5 z"/>
              </clipPath>
            </defs>
            <g clip-path="url(#clip16)" fill="#a5b9ee" fill-opacity="1" opacity="1" stroke="#000000" stroke-linecap="square" stroke-linejoin="bevel" stroke-opacity="1" stroke-width="1" transform="matrix(1,0,0,1,0.5,0.5)">
              <polyline fill="none" points="239,60 200,60" vector-effect="none"/>
            </g>
            <defs>
              <clipPath id="clip17">
                <path d="M199.5,59.5 L239.5,59.5 L239.5,79.5 L199.5,79.5 L199.5,59.5 z"/>
              </clipPath>
            </defs>
            <g clip-path="url(#clip17)" fill="#a5b9ee" fill-opacity="1" opacity="1" stroke="#000000" stroke-linecap="square" stroke-linejoin="bevel" stroke-opacity="1" stroke-width="1" transform="matrix(1,0,0,1,0.5,0.5)">
              <polyline fill="none" points="200,60 200,79" vector-effect="none"/>
            </g>
            <defs>
              <clipPath id="clip18">
                <path d="M-20,-10 L20,-10 L20,10 L-20,10 L-20,-10 z"/>
              </clipPath>
            </defs>
            <g clip-path="url(#clip18)" fill="#a5b9ee" fill-opacity="1" opacity="1" stroke="#000000" stroke-linecap="square" stroke-linejoin="bevel" stroke-opacity="1" stroke-width="1" transform="matrix(1,0,0,1,220,70)">
              <text fill="#000000" fill-opacity="1" font-family="Arial" font-size="10" font-style="normal" font-weight="400" stroke="none" textLength="18.875" x="-9.4375" xml:space="preserve" y="3.5">Mux</text>
            </g>
            <!--RAWSTRING-->
          </g>
          <!--RAWSTRING-->
          <g data-tags="blk frame">
            <g clip-path="none" fill="none" opacity="1" stroke="none" stroke-opacity="0" transform="matrix(1,0,0,1,200,60)">
              <path d="M0,0 L40,0 L40,20 L0,20 L0,0 z" fill-rule="evenodd" vector-effect="none"/>
            </g>
            <!--RAWSTRING-->
          </g>
          <!--RAWSTRING-->
          <g data-tags="blk BlockName">
            <defs>
              <clipPath id="clip19">
                <path d="M-175.313,-44 L117.742,-44 L117.742,14 L-175.313,14 L-175.313,-44 z"/>
              </clipPath>
            </defs>
            <g clip-path="url(#clip19)" fill="none" opacity="1" stroke="#000000" stroke-linecap="square" stroke-linejoin="bevel" stroke-opacity="1" stroke-width="1" transform="matrix(1,0,0,1,209.562,82)">
              <text fill="#000000" fill-opacity="1" font-family="Arial" font-size="10" font-style="normal" font-weight="400" stroke="none" textLength="18.875" x="1" xml:space="preserve" y="10">mux</text>
            </g>
            <!--RAWSTRING-->
          </g>
          <!--RAWSTRING-->
        </g>
        <!--RAWSTRING-->
      </g>
      <!--RAWSTRING-->
      <g data-tags="blk">
        <!--RAWSTRING-->
        <g id="DVR_PI_fault_neural_ntwk:75">
          <g clip-path="none" fill="#ffffff" fill-opacity="1" opacity="1" stroke="none" stroke-opacity="0" transform="matrix(1,0,0,1,300,60)">
            <path d="M0,0 L20,0 L20,20 L0,20 L0,0 z" fill-rule="evenodd" vector-effect="none"/>
          </g>
          <!--RAWSTRING-->
          <g data-tags="blk">
            <defs>
              <clipPath id="clip21">
                <path d="M300,60 L320,60 L320,80 L300,80 L300,60 z"/>
              </clipPath>
            </defs>
            <g clip-path="url(#clip21)" fill="#78e6b4" fill-opacity="1" opacity="1" stroke="#78e6b4" stroke-linecap="square" stroke-linejoin="bevel" stroke-opacity="1" stroke-width="1" transform="matrix(1,0,0,1,0,0)">
              <path d="M300,80 L320,80 L320,60 L300,60 L300,80 z" fill-rule="evenodd" vector-effect="none"/>
            </g>
            <defs>
              <clipPath id="clip22">
                <path d="M300,60 L320,60 L320,80 L300,80 L300,60 z"/>
              </clipPath>
            </defs>
            <g clip-path="url(#clip22)" fill="#509978" fill-opacity="1" opacity="1" stroke="#509978" stroke-linecap="square" stroke-linejoin="bevel" stroke-opacity="1" stroke-width="1" transform="matrix(1,0,0,1,0,0)">
              <path d="M300,80 L320,80 L320,60 L318,61 L318,78 L301,78 L300,80 z" fill-rule="evenodd" vector-effect="none"/>
            </g>
            <defs>
              <clipPath id="clip23">
                <path d="M300,60 L320,60 L320,80 L300,80 L300,60 z"/>
              </clipPath>
            </defs>
            <g clip-path="url(#clip23)" fill="#a5eecd" fill-opacity="1" opacity="1" stroke="#a5eecd" stroke-linecap="square" stroke-linejoin="bevel" stroke-opacity="1" stroke-width="1" transform="matrix(1,0,0,1,0,0)">
              <path d="M300,80 L300,60 L320,60 L318,61 L301,61 L301,78 L300,80 z" fill-rule="evenodd" vector-effect="none"/>
            </g>
            <defs>
              <clipPath id="clip24">
                <path d="M299.5,59.5 L319.5,59.5 L319.5,79.5 L299.5,79.5 L299.5,59.5 z"/>
              </clipPath>
            </defs>
            <g clip-path="url(#clip24)" fill="#a5eecd" fill-opacity="1" opacity="1" stroke="#000000" stroke-linecap="square" stroke-linejoin="bevel" stroke-opacity="1" stroke-width="1" transform="matrix(1,0,0,1,0.5,0.5)">
              <polyline fill="none" points="300,79 319,79" vector-effect="none"/>
            </g>
            <defs>
              <clipPath id="clip25">
                <path d="M299.5,59.5 L319.5,59.5 L319.5,79.5 L299.5,79.5 L299.5,59.5 z"/>
              </clipPath>
            </defs>
            <g clip-path="url(#clip25)" fill="#a5eecd" fill-opacity="1" opacity="1" stroke="#000000" stroke-linecap="square" stroke-linejoin="bevel" stroke-opacity="1" stroke-width="1" transform="matrix(1,0,0,1,0.5,0.5)">
              <polyline fill="none" points="319,79 319,60" vector-effect="none"/>
            </g>
            <defs>
              <clipPath id="clip26">
                <path d="M299.5,59.5 L319.5,59.5 L319.5,79.5 L299.5,79.5 L299.5,59.5 z"/>
              </clipPath>
            </defs>
            <g clip-path="url(#clip26)" fill="#a5eecd" fill-opacity="1" opacity="1" stroke="#000000" stroke-linecap="square" stroke-linejoin="bevel" stroke-opacity="1" stroke-width="1" transform="matrix(1,0,0,1,0.5,0.5)">
              <polyline fill="none" points="319,60 300,60" vector-effect="none"/>
            </g>
            <defs>
              <clipPath id="clip27">
                <path d="M299.5,59.5 L319.5,59.5 L319.5,79.5 L299.5,79.5 L299.5,59.5 z"/>
              </clipPath>
            </defs>
            <g clip-path="url(#clip27)" fill="#a5eecd" fill-opacity="1" opacity="1" stroke="#000000" stroke-linecap="square" stroke-linejoin="bevel" stroke-opacity="1" stroke-width="1" transform="matrix(1,0,0,1,0.5,0.5)">
              <polyline fill="none" points="300,60 300,79" vector-effect="none"/>
            </g>
            <!--RAWSTRING-->
          </g>
          <!--RAWSTRING-->
          <g data-tags="blk frame">
            <g clip-path="none" fill="none" opacity="1" stroke="none" stroke-opacity="0" transform="matrix(1,0,0,1,300,60)">
              <path d="M0,0 L20,0 L20,20 L0,20 L0,0 z" fill-rule="evenodd" vector-effect="none"/>
            </g>
            <!--RAWSTRING-->
          </g>
          <!--RAWSTRING-->
          <g data-tags="blk BlockName">
            <defs>
              <clipPath id="clip28">
                <path d="M-258.445,-44 L34.6094,-44 L34.6094,14 L-258.445,14 L-258.445,-44 z"/>
              </clipPath>
            </defs>
            <g clip-path="url(#clip28)" fill="none" opacity="1" stroke="#000000" stroke-linecap="square" stroke-linejoin="bevel" stroke-opacity="1" stroke-width="1" transform="matrix(1,0,0,1,292.695,82)">
              <text fill="#000000" fill-opacity="1" font-family="Arial" font-size="10" font-style="normal" font-weight="400" stroke="none" textLength="31.6094" x="1.5" xml:space="preserve" y="10">pd{1,1}</text>
            </g>
            <!--RAWSTRING-->
          </g>
          <!--RAWSTRING-->
        </g>
        <!--RAWSTRING-->
      </g>
      <!--RAWSTRING-->
      <g id="DVR_PI_fault_neural_ntwk:73#out:1">
        <!--RAWSTRING-->
        <g data-tags="PathIntersectionsEnabledTag">
          <g clip-path="none" fill="#000000" fill-opacity="1" opacity="1" stroke="none" stroke-opacity="0" transform="matrix(1,0,0,1,200,70)">
            <path d="M0,0 L-8,-4 L-8,4 L0,0 z" fill-rule="nonzero" vector-effect="none"/>
          </g>
          <g clip-path="none" fill="none" opacity="1" stroke="#000000" stroke-linecap="butt" stroke-linejoin="miter" stroke-miterlimit="2" stroke-opacity="1" stroke-width="1" transform="matrix(1,0,0,1,0,0)">
            <path d="M70,60 L70,65 L185,70 L192,70" fill-rule="evenodd" vector-effect="none"/>
          </g>
          <!--RAWSTRING-->
        </g>
        <!--RAWSTRING-->
      </g>
      <!--RAWSTRING-->
      <g id="DVR_PI_fault_neural_ntwk:74#out:1">
        <!--RAWSTRING-->
        <g data-tags="PathIntersectionsEnabledTag">
          <g clip-path="none" fill="#000000" fill-opacity="1" opacity="1" stroke="none" stroke-opacity="0" transform="matrix(1,0,0,1,300,70)">
            <path d="M0,0 L-8,-4 L-8,4 L0,0 z" fill-rule="nonzero" vector-effect="none"/>
          </g>
          <g clip-path="none" fill="none" opacity="1" stroke="#000000" stroke-linecap="butt" stroke-linejoin="miter" stroke-miterlimit="2" stroke-opacity="1" stroke-width="1" transform="matrix(1,0,0,1,0,0)">
            <path d="M240,70 L292,70" fill-rule="evenodd" vector-effect="none"/>
          </g>
          <!--RAWSTRING-->
        </g>
        <!--RAWSTRING-->
      </g>
      <!--RAWSTRING-->
    </g>
  </g>
  <!--generated on windows @ 2022-11-27 22:09:04 E. Africa Standard Time-->
</svg>
