<?xml version="1.0" encoding="UTF-8" standalone="no"?>
<svg xmlns="http://www.w3.org/2000/svg" xmlns:xlink="http://www.w3.org/1999/xlink" display="inline" height="58.000000px" preserveAspectRatio="xMinYMin meet" viewBox="19.00 29.00 242.00 58.00" width="242.000000px" x="0" y="0" zoomAndPan="disable">
  <g fill="none" stroke="black" stroke-width="1" fill-rule="evenodd" stroke-linecap="square" stroke-linejoin="bevel">
    <!--RAWSTRING-->
    <g id="background" pointer-events="none">
      <g clip-path="none" fill="#ffffff" fill-opacity="1" opacity="1" stroke="none" stroke-opacity="0" transform="matrix(1,0,0,1,0,0)">
        <path d="M20,30 L260,30 L260,86 L20,86 L20,30 z" fill-rule="evenodd" vector-effect="none"/>
      </g>
      <!--RAWSTRING-->
    </g>
    <!--RAWSTRING-->
    <g id="DVR_PI_fault_neural_ntwk:246">
      <!--RAWSTRING-->
      <g data-tags="blk">
        <!--RAWSTRING-->
        <g id="DVR_PI_fault_neural_ntwk:247">
          <g clip-path="none" fill="#ffffff" fill-opacity="1" opacity="1" stroke="none" stroke-opacity="0" transform="matrix(1,0,0,1,20,30)">
            <path d="M0,0 L40,0 L40,40 L0,40 L0,0 z" fill-rule="evenodd" vector-effect="none"/>
          </g>
          <!--RAWSTRING-->
          <g data-tags="blk">
            <defs>
              <clipPath id="clip2">
                <path d="M20,30 L60,30 L60,70 L20,70 L20,30 z"/>
              </clipPath>
            </defs>
            <g clip-path="url(#clip2)" fill="#78e6b4" fill-opacity="1" opacity="1" stroke="#78e6b4" stroke-linecap="square" stroke-linejoin="bevel" stroke-opacity="1" stroke-width="1" transform="matrix(1,0,0,1,0,0)">
              <path d="M20,70 L60,70 L60,30 L20,30 L20,70 z" fill-rule="evenodd" vector-effect="none"/>
            </g>
            <defs>
              <clipPath id="clip3">
                <path d="M20,30 L60,30 L60,70 L20,70 L20,30 z"/>
              </clipPath>
            </defs>
            <g clip-path="url(#clip3)" fill="#509978" fill-opacity="1" opacity="1" stroke="#509978" stroke-linecap="square" stroke-linejoin="bevel" stroke-opacity="1" stroke-width="1" transform="matrix(1,0,0,1,0,0)">
              <path d="M20,70 L60,70 L60,30 L57,32 L57,67 L22,67 L20,70 z" fill-rule="evenodd" vector-effect="none"/>
            </g>
            <defs>
              <clipPath id="clip4">
                <path d="M20,30 L60,30 L60,70 L20,70 L20,30 z"/>
              </clipPath>
            </defs>
            <g clip-path="url(#clip4)" fill="#a5eecd" fill-opacity="1" opacity="1" stroke="#a5eecd" stroke-linecap="square" stroke-linejoin="bevel" stroke-opacity="1" stroke-width="1" transform="matrix(1,0,0,1,0,0)">
              <path d="M20,70 L20,30 L60,30 L57,32 L22,32 L22,67 L20,70 z" fill-rule="evenodd" vector-effect="none"/>
            </g>
            <defs>
              <clipPath id="clip5">
                <path d="M19.5,29.5 L59.5,29.5 L59.5,69.5 L19.5,69.5 L19.5,29.5 z"/>
              </clipPath>
            </defs>
            <g clip-path="url(#clip5)" fill="#a5eecd" fill-opacity="1" opacity="1" stroke="#000000" stroke-linecap="square" stroke-linejoin="bevel" stroke-opacity="1" stroke-width="1" transform="matrix(1,0,0,1,0.5,0.5)">
              <polyline fill="none" points="20,69 59,69" vector-effect="none"/>
            </g>
            <defs>
              <clipPath id="clip6">
                <path d="M19.5,29.5 L59.5,29.5 L59.5,69.5 L19.5,69.5 L19.5,29.5 z"/>
              </clipPath>
            </defs>
            <g clip-path="url(#clip6)" fill="#a5eecd" fill-opacity="1" opacity="1" stroke="#000000" stroke-linecap="square" stroke-linejoin="bevel" stroke-opacity="1" stroke-width="1" transform="matrix(1,0,0,1,0.5,0.5)">
              <polyline fill="none" points="59,69 59,30" vector-effect="none"/>
            </g>
            <defs>
              <clipPath id="clip7">
                <path d="M19.5,29.5 L59.5,29.5 L59.5,69.5 L19.5,69.5 L19.5,29.5 z"/>
              </clipPath>
            </defs>
            <g clip-path="url(#clip7)" fill="#a5eecd" fill-opacity="1" opacity="1" stroke="#000000" stroke-linecap="square" stroke-linejoin="bevel" stroke-opacity="1" stroke-width="1" transform="matrix(1,0,0,1,0.5,0.5)">
              <polyline fill="none" points="59,30 20,30" vector-effect="none"/>
            </g>
            <defs>
              <clipPath id="clip8">
                <path d="M19.5,29.5 L59.5,29.5 L59.5,69.5 L19.5,69.5 L19.5,29.5 z"/>
              </clipPath>
            </defs>
            <g clip-path="url(#clip8)" fill="#a5eecd" fill-opacity="1" opacity="1" stroke="#000000" stroke-linecap="square" stroke-linejoin="bevel" stroke-opacity="1" stroke-width="1" transform="matrix(1,0,0,1,0.5,0.5)">
              <polyline fill="none" points="20,30 20,69" vector-effect="none"/>
            </g>
            <!--RAWSTRING-->
          </g>
          <!--RAWSTRING-->
          <g data-tags="blk frame">
            <g clip-path="none" fill="none" opacity="1" stroke="none" stroke-opacity="0" transform="matrix(1,0,0,1,20,30)">
              <path d="M0,0 L40,0 L40,40 L0,40 L0,0 z" fill-rule="evenodd" vector-effect="none"/>
            </g>
            <!--RAWSTRING-->
          </g>
          <!--RAWSTRING-->
          <g data-tags="blk BlockName">
            <defs>
              <clipPath id="clip9">
                <path d="M-18.5,-44 L225.5,-44 L225.5,14 L-18.5,14 L-18.5,-44 z"/>
              </clipPath>
            </defs>
            <g clip-path="url(#clip9)" fill="none" opacity="1" stroke="#000000" stroke-linecap="square" stroke-linejoin="bevel" stroke-opacity="1" stroke-width="1" transform="matrix(1,0,0,1,36.5,72)">
              <text fill="#000000" fill-opacity="1" font-family="Arial" font-size="10" font-style="normal" font-weight="400" stroke="none" textLength="5" x="1" xml:space="preserve" y="10">x</text>
            </g>
            <!--RAWSTRING-->
          </g>
          <!--RAWSTRING-->
        </g>
        <!--RAWSTRING-->
      </g>
      <!--RAWSTRING-->
      <g data-tags="blk">
        <!--RAWSTRING-->
        <g id="DVR_PI_fault_neural_ntwk:248">
          <g clip-path="none" fill="#61bdfc" fill-opacity="1" opacity="1" stroke="none" stroke-opacity="0" transform="matrix(1,0,0,1,120,30)">
            <path d="M0,0 L40,0 L40,40 L0,40 L0,0 z" fill-rule="evenodd" vector-effect="none"/>
          </g>
          <!--RAWSTRING-->
          <g data-tags="blk">
            <defs>
              <clipPath id="clip11">
                <path d="M120,30 L160,30 L160,70 L120,70 L120,30 z"/>
              </clipPath>
            </defs>
            <g clip-path="url(#clip11)" fill="#7896e6" fill-opacity="1" opacity="1" stroke="#7896e6" stroke-linecap="square" stroke-linejoin="bevel" stroke-opacity="1" stroke-width="1" transform="matrix(1,0,0,1,0,0)">
              <path d="M120,70 L160,70 L160,30 L120,30 L120,70 z" fill-rule="evenodd" vector-effect="none"/>
            </g>
            <defs>
              <clipPath id="clip12">
                <path d="M120,30 L160,30 L160,70 L120,70 L120,30 z"/>
              </clipPath>
            </defs>
            <g clip-path="url(#clip12)" fill="#506499" fill-opacity="1" opacity="1" stroke="#506499" stroke-linecap="square" stroke-linejoin="bevel" stroke-opacity="1" stroke-width="1" transform="matrix(1,0,0,1,0,0)">
              <path d="M120,70 L160,70 L160,30 L157,32 L157,67 L122,67 L120,70 z" fill-rule="evenodd" vector-effect="none"/>
            </g>
            <defs>
              <clipPath id="clip13">
                <path d="M120,30 L160,30 L160,70 L120,70 L120,30 z"/>
              </clipPath>
            </defs>
            <g clip-path="url(#clip13)" fill="#a5b9ee" fill-opacity="1" opacity="1" stroke="#a5b9ee" stroke-linecap="square" stroke-linejoin="bevel" stroke-opacity="1" stroke-width="1" transform="matrix(1,0,0,1,0,0)">
              <path d="M120,70 L120,30 L160,30 L157,32 L122,32 L122,67 L120,70 z" fill-rule="evenodd" vector-effect="none"/>
            </g>
            <defs>
              <clipPath id="clip14">
                <path d="M119.5,29.5 L159.5,29.5 L159.5,69.5 L119.5,69.5 L119.5,29.5 z"/>
              </clipPath>
            </defs>
            <g clip-path="url(#clip14)" fill="#a5b9ee" fill-opacity="1" opacity="1" stroke="#000000" stroke-linecap="square" stroke-linejoin="bevel" stroke-opacity="1" stroke-width="1" transform="matrix(1,0,0,1,0.5,0.5)">
              <polyline fill="none" points="120,69 159,69" vector-effect="none"/>
            </g>
            <defs>
              <clipPath id="clip15">
                <path d="M119.5,29.5 L159.5,29.5 L159.5,69.5 L119.5,69.5 L119.5,29.5 z"/>
              </clipPath>
            </defs>
            <g clip-path="url(#clip15)" fill="#a5b9ee" fill-opacity="1" opacity="1" stroke="#000000" stroke-linecap="square" stroke-linejoin="bevel" stroke-opacity="1" stroke-width="1" transform="matrix(1,0,0,1,0.5,0.5)">
              <polyline fill="none" points="159,69 159,30" vector-effect="none"/>
            </g>
            <defs>
              <clipPath id="clip16">
                <path d="M119.5,29.5 L159.5,29.5 L159.5,69.5 L119.5,69.5 L119.5,29.5 z"/>
              </clipPath>
            </defs>
            <g clip-path="url(#clip16)" fill="#a5b9ee" fill-opacity="1" opacity="1" stroke="#000000" stroke-linecap="square" stroke-linejoin="bevel" stroke-opacity="1" stroke-width="1" transform="matrix(1,0,0,1,0.5,0.5)">
              <polyline fill="none" points="159,30 120,30" vector-effect="none"/>
            </g>
            <defs>
              <clipPath id="clip17">
                <path d="M119.5,29.5 L159.5,29.5 L159.5,69.5 L119.5,69.5 L119.5,29.5 z"/>
              </clipPath>
            </defs>
            <g clip-path="url(#clip17)" fill="#a5b9ee" fill-opacity="1" opacity="1" stroke="#000000" stroke-linecap="square" stroke-linejoin="bevel" stroke-opacity="1" stroke-width="1" transform="matrix(1,0,0,1,0.5,0.5)">
              <polyline fill="none" points="120,30 120,69" vector-effect="none"/>
            </g>
            <defs>
              <clipPath id="clip18">
                <path d="M-3,-20 L37,-20 L37,20 L-3,20 L-3,-20 z"/>
              </clipPath>
            </defs>
            <g clip-path="url(#clip18)" fill="#a5b9ee" fill-opacity="1" opacity="1" stroke="#000000" stroke-linecap="square" stroke-linejoin="bevel" stroke-opacity="1" stroke-width="1" transform="matrix(1,0,0,1,123,50)">
              <text fill="#000000" fill-opacity="1" font-family="Arial" font-size="10" font-style="normal" font-weight="400" stroke="none" textLength="5" x="0" xml:space="preserve" y="3.5">x</text>
            </g>
            <defs>
              <clipPath id="clip19">
                <path d="M-37,-20 L3,-20 L3,20 L-37,20 L-37,-20 z"/>
              </clipPath>
            </defs>
            <g clip-path="url(#clip19)" fill="#a5b9ee" fill-opacity="1" opacity="1" stroke="#000000" stroke-linecap="square" stroke-linejoin="bevel" stroke-opacity="1" stroke-width="1" transform="matrix(1,0,0,1,157,50)">
              <text fill="#000000" fill-opacity="1" font-family="Arial" font-size="10" font-style="normal" font-weight="400" stroke="none" textLength="5" x="-5" xml:space="preserve" y="3.5">y</text>
            </g>
            <!--RAWSTRING-->
          </g>
          <!--RAWSTRING-->
          <g data-tags="blk frame">
            <g clip-path="none" fill="none" opacity="1" stroke="none" stroke-opacity="0" transform="matrix(1,0,0,1,120,30)">
              <path d="M0,0 L40,0 L40,40 L0,40 L0,0 z" fill-rule="evenodd" vector-effect="none"/>
            </g>
            <!--RAWSTRING-->
          </g>
          <!--RAWSTRING-->
        </g>
        <!--RAWSTRING-->
      </g>
      <!--RAWSTRING-->
      <g data-tags="blk">
        <!--RAWSTRING-->
        <g id="DVR_PI_fault_neural_ntwk:249">
          <g clip-path="none" fill="#ffffff" fill-opacity="1" opacity="1" stroke="none" stroke-opacity="0" transform="matrix(1,0,0,1,220,30)">
            <path d="M0,0 L40,0 L40,40 L0,40 L0,0 z" fill-rule="evenodd" vector-effect="none"/>
          </g>
          <!--RAWSTRING-->
          <g data-tags="blk">
            <defs>
              <clipPath id="clip21">
                <path d="M220,30 L260,30 L260,70 L220,70 L220,30 z"/>
              </clipPath>
            </defs>
            <g clip-path="url(#clip21)" fill="#78e6b4" fill-opacity="1" opacity="1" stroke="#78e6b4" stroke-linecap="square" stroke-linejoin="bevel" stroke-opacity="1" stroke-width="1" transform="matrix(1,0,0,1,0,0)">
              <path d="M220,70 L260,70 L260,30 L220,30 L220,70 z" fill-rule="evenodd" vector-effect="none"/>
            </g>
            <defs>
              <clipPath id="clip22">
                <path d="M220,30 L260,30 L260,70 L220,70 L220,30 z"/>
              </clipPath>
            </defs>
            <g clip-path="url(#clip22)" fill="#509978" fill-opacity="1" opacity="1" stroke="#509978" stroke-linecap="square" stroke-linejoin="bevel" stroke-opacity="1" stroke-width="1" transform="matrix(1,0,0,1,0,0)">
              <path d="M220,70 L260,70 L260,30 L257,32 L257,67 L222,67 L220,70 z" fill-rule="evenodd" vector-effect="none"/>
            </g>
            <defs>
              <clipPath id="clip23">
                <path d="M220,30 L260,30 L260,70 L220,70 L220,30 z"/>
              </clipPath>
            </defs>
            <g clip-path="url(#clip23)" fill="#a5eecd" fill-opacity="1" opacity="1" stroke="#a5eecd" stroke-linecap="square" stroke-linejoin="bevel" stroke-opacity="1" stroke-width="1" transform="matrix(1,0,0,1,0,0)">
              <path d="M220,70 L220,30 L260,30 L257,32 L222,32 L222,67 L220,70 z" fill-rule="evenodd" vector-effect="none"/>
            </g>
            <defs>
              <clipPath id="clip24">
                <path d="M219.5,29.5 L259.5,29.5 L259.5,69.5 L219.5,69.5 L219.5,29.5 z"/>
              </clipPath>
            </defs>
            <g clip-path="url(#clip24)" fill="#a5eecd" fill-opacity="1" opacity="1" stroke="#000000" stroke-linecap="square" stroke-linejoin="bevel" stroke-opacity="1" stroke-width="1" transform="matrix(1,0,0,1,0.5,0.5)">
              <polyline fill="none" points="220,69 259,69" vector-effect="none"/>
            </g>
            <defs>
              <clipPath id="clip25">
                <path d="M219.5,29.5 L259.5,29.5 L259.5,69.5 L219.5,69.5 L219.5,29.5 z"/>
              </clipPath>
            </defs>
            <g clip-path="url(#clip25)" fill="#a5eecd" fill-opacity="1" opacity="1" stroke="#000000" stroke-linecap="square" stroke-linejoin="bevel" stroke-opacity="1" stroke-width="1" transform="matrix(1,0,0,1,0.5,0.5)">
              <polyline fill="none" points="259,69 259,30" vector-effect="none"/>
            </g>
            <defs>
              <clipPath id="clip26">
                <path d="M219.5,29.5 L259.5,29.5 L259.5,69.5 L219.5,69.5 L219.5,29.5 z"/>
              </clipPath>
            </defs>
            <g clip-path="url(#clip26)" fill="#a5eecd" fill-opacity="1" opacity="1" stroke="#000000" stroke-linecap="square" stroke-linejoin="bevel" stroke-opacity="1" stroke-width="1" transform="matrix(1,0,0,1,0.5,0.5)">
              <polyline fill="none" points="259,30 220,30" vector-effect="none"/>
            </g>
            <defs>
              <clipPath id="clip27">
                <path d="M219.5,29.5 L259.5,29.5 L259.5,69.5 L219.5,69.5 L219.5,29.5 z"/>
              </clipPath>
            </defs>
            <g clip-path="url(#clip27)" fill="#a5eecd" fill-opacity="1" opacity="1" stroke="#000000" stroke-linecap="square" stroke-linejoin="bevel" stroke-opacity="1" stroke-width="1" transform="matrix(1,0,0,1,0.5,0.5)">
              <polyline fill="none" points="220,30 220,69" vector-effect="none"/>
            </g>
            <!--RAWSTRING-->
          </g>
          <!--RAWSTRING-->
          <g data-tags="blk frame">
            <g clip-path="none" fill="none" opacity="1" stroke="none" stroke-opacity="0" transform="matrix(1,0,0,1,220,30)">
              <path d="M0,0 L40,0 L40,40 L0,40 L0,0 z" fill-rule="evenodd" vector-effect="none"/>
            </g>
            <!--RAWSTRING-->
          </g>
          <!--RAWSTRING-->
          <g data-tags="blk BlockName">
            <defs>
              <clipPath id="clip28">
                <path d="M-218.227,-44 L25.7734,-44 L25.7734,14 L-218.227,14 L-218.227,-44 z"/>
              </clipPath>
            </defs>
            <g clip-path="url(#clip28)" fill="none" opacity="1" stroke="#000000" stroke-linecap="square" stroke-linejoin="bevel" stroke-opacity="1" stroke-width="1" transform="matrix(1,0,0,1,236.227,72)">
              <text fill="#000000" fill-opacity="1" font-family="Arial" font-size="10" font-style="normal" font-weight="400" stroke="none" textLength="5.54688" x="1" xml:space="preserve" y="10">p</text>
            </g>
            <!--RAWSTRING-->
          </g>
          <!--RAWSTRING-->
        </g>
        <!--RAWSTRING-->
      </g>
      <!--RAWSTRING-->
      <g id="DVR_PI_fault_neural_ntwk:247#out:1">
        <!--RAWSTRING-->
        <g data-tags="PathIntersectionsEnabledTag">
          <g clip-path="none" fill="#000000" fill-opacity="1" opacity="1" stroke="none" stroke-opacity="0" transform="matrix(1,0,0,1,120,50)">
            <path d="M0,0 L-8,-4 L-8,4 L0,0 z" fill-rule="nonzero" vector-effect="none"/>
          </g>
          <g clip-path="none" fill="none" opacity="1" stroke="#000000" stroke-linecap="butt" stroke-linejoin="miter" stroke-miterlimit="2" stroke-opacity="1" stroke-width="1" transform="matrix(1,0,0,1,0,0)">
            <path d="M60,50 L112,50" fill-rule="evenodd" vector-effect="none"/>
          </g>
          <!--RAWSTRING-->
        </g>
        <!--RAWSTRING-->
      </g>
      <!--RAWSTRING-->
      <g id="DVR_PI_fault_neural_ntwk:248#out:1">
        <!--RAWSTRING-->
        <g data-tags="PathIntersectionsEnabledTag">
          <g clip-path="none" fill="#000000" fill-opacity="1" opacity="1" stroke="none" stroke-opacity="0" transform="matrix(1,0,0,1,220,50)">
            <path d="M0,0 L-8,-4 L-8,4 L0,0 z" fill-rule="nonzero" vector-effect="none"/>
          </g>
          <g clip-path="none" fill="none" opacity="1" stroke="#000000" stroke-linecap="butt" stroke-linejoin="miter" stroke-miterlimit="2" stroke-opacity="1" stroke-width="1" transform="matrix(1,0,0,1,0,0)">
            <path d="M160,50 L212,50" fill-rule="evenodd" vector-effect="none"/>
          </g>
          <!--RAWSTRING-->
        </g>
        <!--RAWSTRING-->
      </g>
      <!--RAWSTRING-->
    </g>
  </g>
  <!--generated on windows @ 2022-11-27 22:09:15 E. Africa Standard Time-->
</svg>
